<!-- Generated by IcoMoon.io -->
<svg version="1.1" xmlns="http://www.w3.org/2000/svg" width="45" height="48" viewBox="0 0 45 48">
<title>star-half-empty</title>
<path style="fill:#fec000" d="M31.768 25.634l6.884-6.696-11.304-1.661-0.804-1.607-4.259-8.625v25.795l1.58 0.83 8.518 4.5-1.607-9.509-0.321-1.768zM43.875 18.616l-9.723 9.482 2.304 13.393c0.188 1.179-0.241 1.875-1.071 1.875-0.295 0-0.67-0.107-1.071-0.321l-12.027-6.321-12.027 6.321c-0.402 0.214-0.777 0.321-1.071 0.321-0.83 0-1.259-0.696-1.071-1.875l2.304-13.393-9.75-9.482c-1.152-1.152-0.777-2.277 0.83-2.518l13.446-1.955 6.027-12.188c0.348-0.723 0.83-1.098 1.313-1.098v0c0.482 0 0.938 0.375 1.313 1.098l6.027 12.188 13.446 1.955c1.607 0.241 1.982 1.366 0.804 2.518z"></path>
</svg>
