<!-- Generated by IcoMoon.io -->
<svg version="1.1" xmlns="http://www.w3.org/2000/svg" width="45" height="48" viewBox="0 0 45 48">
<title>star-o</title>
<path style="fill:#fec000" d="M30.455 26.893l8.196-7.955-11.304-1.661-5.063-10.232-5.063 10.232-11.304 1.661 8.196 7.955-1.955 11.277 10.125-5.33 10.098 5.33zM44.571 17.33c0 0.482-0.348 0.938-0.696 1.286l-9.723 9.482 2.304 13.393c0.027 0.188 0.027 0.348 0.027 0.536 0 0.723-0.321 1.339-1.098 1.339-0.375 0-0.75-0.134-1.071-0.321l-12.027-6.321-12.027 6.321c-0.348 0.188-0.696 0.321-1.071 0.321-0.777 0-1.125-0.643-1.125-1.339 0-0.188 0.027-0.348 0.054-0.536l2.304-13.393-9.75-9.482c-0.321-0.348-0.67-0.804-0.67-1.286 0-0.804 0.83-1.125 1.5-1.232l13.446-1.955 6.027-12.188c0.241-0.509 0.696-1.098 1.313-1.098s1.071 0.589 1.313 1.098l6.027 12.188 13.446 1.955c0.643 0.107 1.5 0.429 1.5 1.232z"></path>
</svg>
