<svg width="24" height="24" viewBox="0 0 24 24" fill="none" xmlns="http://www.w3.org/2000/svg">
<path fill-rule="evenodd" clip-rule="evenodd" d="M6.47548 2.00361L6.44703 2.00173C5.13019 1.94046 3.2719 3.52383 2.58526 4.66906C1.83186 5.69814 1.81737 7.06475 2.47529 8.6455L2.57901 8.8842C4.31265 13.1537 10.818 19.6509 15.0709 21.4297C16.6981 22.191 18.1483 22.2049 19.291 21.3821C20.2956 20.8078 21.9431 18.8968 21.8955 17.5396C21.8503 16.9812 21.5907 16.5254 21.1875 16.1104L21.0891 16.0127L20.8152 15.7594C19.8234 14.8725 18.1062 13.6098 17.5751 13.4982C16.9515 13.3682 16.5286 13.4846 15.8616 13.8523L15.6132 13.9936C15.1389 14.2671 14.9693 14.3139 14.7446 14.2319C12.3717 13.2578 10.6985 11.5761 9.71791 9.16394C9.65417 8.98522 9.68569 8.82913 9.89193 8.4507L10.0006 8.25773C10.4502 7.47256 10.6009 7.02869 10.4593 6.34521L10.4343 6.25664C10.202 5.58042 8.77842 3.67254 7.98799 2.84195L7.86065 2.71312C7.44871 2.30856 6.99574 2.0484 6.47548 2.00361ZM6.36497 3.46397L6.4192 3.47438C6.5141 3.50117 6.62602 3.56689 6.75204 3.67518L6.84383 3.75911L7.01708 3.9415C7.68914 4.68353 8.99113 6.43341 9.03419 6.64265C9.07489 6.83908 9.02988 7.00325 8.81663 7.39014L8.70506 7.58738C8.23546 8.40967 8.0901 8.93988 8.35996 9.68968C9.4991 12.4936 11.4597 14.464 14.2214 15.5971C14.9336 15.8575 15.4386 15.7534 16.1539 15.3657L16.399 15.2273C16.8844 14.9466 17.0621 14.8857 17.2784 14.9308C17.4898 14.9752 19.3814 16.3949 20.0749 17.0621L20.1559 17.1426C20.3347 17.3268 20.4325 17.4985 20.443 17.6259C20.4526 17.9236 20.1545 18.483 19.6281 19.0935C19.2534 19.5281 18.7668 19.9725 18.5559 20.1198L18.5055 20.1524C17.8239 20.6389 16.9821 20.6598 15.8691 20.1855L15.6572 20.0908C11.8121 18.4818 5.76508 12.488 4.01861 8.54808L3.91511 8.30456C3.37395 7.10758 3.32905 6.2325 3.71762 5.5958L3.79554 5.47919C4.24591 4.73347 5.60316 3.55891 6.27894 3.4685L6.36497 3.46397ZM14.4217 2.24373L14.5206 2.24805C18.4503 2.68669 21.5537 5.803 21.9954 9.75343C22.0403 10.155 21.7529 10.5171 21.3535 10.5622C20.9541 10.6074 20.5939 10.3184 20.549 9.91687C20.1833 6.64586 17.6138 4.06559 14.36 3.70241C13.9605 3.65782 13.6726 3.29611 13.717 2.8945C13.7539 2.55982 14.0099 2.30305 14.3254 2.25256L14.4217 2.24373ZM14.4813 5.70096L14.5795 5.7134C16.5878 6.10696 18.1572 7.6848 18.5487 9.70396C18.6256 10.1006 18.3681 10.4848 17.9736 10.5621C17.5791 10.6394 17.197 10.3805 17.1201 9.98391C16.8421 8.54969 15.7276 7.42921 14.301 7.14966C13.9065 7.07236 13.6491 6.68817 13.726 6.29155C13.7901 5.96104 14.0661 5.7262 14.3846 5.70184L14.4813 5.70096Z" fill="#200E32"/>
</svg>
